<svg width="20" height="20" viewBox="0 0 20 20" fill="none" xmlns="http://www.w3.org/2000/svg">
<rect x="0.5" y="0.5" width="19" height="19" rx="4.5" fill="#4487EB"/>
<g clip-path="url(#clip0_425_3777)">
<path fill-rule="evenodd" clip-rule="evenodd" d="M15.8535 6.146C15.9001 6.19244 15.937 6.24762 15.9622 6.30837C15.9875 6.36911 16.0004 6.43423 16.0004 6.5C16.0004 6.56577 15.9875 6.63089 15.9622 6.69163C15.937 6.75238 15.9001 6.80755 15.8535 6.854L8.85353 13.854C8.80709 13.9006 8.75191 13.9375 8.69117 13.9627C8.63042 13.9879 8.5653 14.0009 8.49953 14.0009C8.43377 14.0009 8.36864 13.9879 8.3079 13.9627C8.24715 13.9375 8.19198 13.9006 8.14553 13.854L4.64553 10.354C4.55165 10.2601 4.4989 10.1328 4.4989 10C4.4989 9.86722 4.55165 9.73989 4.64553 9.646C4.73942 9.55211 4.86676 9.49937 4.99953 9.49937C5.13231 9.49937 5.25965 9.55211 5.35353 9.646L8.49953 12.793L15.1455 6.146C15.192 6.09944 15.2472 6.06249 15.3079 6.03729C15.3686 6.01208 15.4338 5.99911 15.4995 5.99911C15.5653 5.99911 15.6304 6.01208 15.6912 6.03729C15.7519 6.06249 15.8071 6.09944 15.8535 6.146Z" fill="white"/>
</g>
<rect x="0.5" y="0.5" width="19" height="19" rx="4.5" stroke="#4487EB"/>
<defs>
<clipPath id="clip0_425_3777">
<rect width="12.0009" height="9" fill="white" transform="translate(3.99954 5.5)"/>
</clipPath>
</defs>
</svg>
